# xmcd
#
# Track frame offsets:
#	150
#	13312
#	34938
#	47340
#	57039
#	69826
#	82697
#	95604
#	106687
#	117970
#	129754
#	142495
#	153705
#	164981
#
# Disc length: 2362 seconds
#
# Revision: 1
# Processed by: cddbd v1.4PL0 Copyright (c) Steve Scherf et al.
# Submitted via: audiograbber 1.80.04
#
DISCID=b809380e
DTITLE=Elmore James - Slip Sliding Away
DYEAR=1900
DGENRE=Blues
TTITLE0=Stranger Blues
TTITLE1=Something Inside of Me
TTITLE2=The Sky is Crying
TTITLE3=Bobby's Rock
TTITLE4=Held My Baby Last Night
TTITLE5=Dust My Brom
TTITLE6=Baby Please Set a Date
TTITLE7=Rollin and Tumblin
TTITLE8=Fine Little Mama
TTITLE9=I Can't Stop Lovin'  You
TTITLE10=Anna Lee
TTITLE11=Look on Yonder Wall
TTITLE12=So Unkind
TTITLE13=Got to Move
EXTD=
EXTT0=
EXTT1=
EXTT2=
EXTT3=
EXTT4=
EXTT5=
EXTT6=
EXTT7=
EXTT8=
EXTT9=
EXTT10=
EXTT11=
EXTT12=
EXTT13=
PLAYORDER=
